<svg viewBox="0 0 1000 1000" xmlns="http://www.w3.org/2000/svg"><defs><linearGradient id="b"><stop offset="0%" stop-color="#05A8C6"/><stop offset="100%" stop-color="#F5E29D"/></linearGradient><clipPath id="a"><path fill="currentColor" d="M860 589q-114 89-203 105.5t-165 41q-76 24.5-212.5 24t-110-130Q196 500 148 354.5T237.5 162Q375 115 491 143t248 58q132 30 183.5 164.5T860 589Z"/></clipPath></defs><g clip-path="url(#a)"><path fill="url(#b)" d="M860 589q-114 89-203 105.5t-165 41q-76 24.5-212.5 24t-110-130Q196 500 148 354.5T237.5 162Q375 115 491 143t248 58q132 30 183.5 164.5T860 589Z"/></g></svg>